<svg width="301" height="39" viewBox="0 0 301 39" fill="none" xmlns="http://www.w3.org/2000/svg">
<rect opacity="0.3" x="0.291325" y="0.261597" width="300.093" height="6.00186" rx="3.00093" fill="#D9D9D9"/>
<rect opacity="0.8" x="0.291325" y="0.261597" width="261.081" height="6.00186" rx="3.00093" fill="#D9D9D9"/>
<g opacity="0.7">
<path d="M7.57087 25.9302V27.4916C7.57087 28.3309 7.49585 29.039 7.3458 29.6157C7.19575 30.1925 6.98006 30.6567 6.69872 31.0083C6.41739 31.36 6.07744 31.6156 5.67888 31.775C5.28501 31.9297 4.83956 32.0071 4.34253 32.0071C3.94866 32.0071 3.58526 31.9579 3.25235 31.8594C2.91943 31.7609 2.61934 31.6038 2.35207 31.3881C2.08949 31.1678 1.86442 30.8817 1.67686 30.5301C1.4893 30.1784 1.34629 29.7517 1.24782 29.25C1.14935 28.7483 1.10012 28.1621 1.10012 27.4916V25.9302C1.10012 25.0909 1.17514 24.3875 1.32519 23.8202C1.47992 23.2528 1.69796 22.798 1.9793 22.4557C2.26063 22.1087 2.59824 21.8602 2.99211 21.7102C3.39067 21.5601 3.83612 21.4851 4.32846 21.4851C4.72702 21.4851 5.09276 21.5343 5.42567 21.6328C5.76328 21.7266 6.06337 21.879 6.32595 22.09C6.58853 22.2963 6.81126 22.5729 6.99413 22.9199C7.18169 23.2622 7.3247 23.6819 7.42317 24.1789C7.52163 24.6759 7.57087 25.2597 7.57087 25.9302ZM6.26265 27.7026V25.7122C6.26265 25.2527 6.23452 24.8494 6.17825 24.5024C6.12667 24.1508 6.0493 23.8507 5.94615 23.6021C5.84299 23.3536 5.7117 23.152 5.55228 22.9973C5.39754 22.8425 5.21702 22.73 5.0107 22.6597C4.80908 22.5846 4.58166 22.5471 4.32846 22.5471C4.01899 22.5471 3.74469 22.6057 3.50555 22.723C3.26641 22.8355 3.06479 23.016 2.90067 23.2645C2.74125 23.5131 2.61934 23.8389 2.53494 24.2422C2.45054 24.6454 2.40834 25.1354 2.40834 25.7122V27.7026C2.40834 28.1621 2.43412 28.5677 2.4857 28.9194C2.54197 29.2711 2.62403 29.5759 2.73187 29.8338C2.83972 30.087 2.97101 30.2956 3.12574 30.4597C3.28048 30.6238 3.45866 30.7458 3.66028 30.8255C3.8666 30.9005 4.09401 30.938 4.34253 30.938C4.66138 30.938 4.94037 30.877 5.1795 30.7551C5.41864 30.6332 5.61792 30.4433 5.77735 30.1854C5.94146 29.9228 6.06337 29.5876 6.14308 29.1796C6.2228 28.767 6.26265 28.2747 6.26265 27.7026ZM11.1438 26.106H12.0723C12.5271 26.106 12.9022 26.031 13.1976 25.881C13.4977 25.7262 13.7204 25.5176 13.8658 25.255C14.0158 24.9877 14.0909 24.6876 14.0909 24.3547C14.0909 23.9608 14.0252 23.6303 13.8939 23.363C13.7626 23.0957 13.5657 22.8941 13.3031 22.7581C13.0405 22.6222 12.7076 22.5542 12.3044 22.5542C11.9386 22.5542 11.6151 22.6268 11.3338 22.7722C11.0571 22.9129 10.8391 23.1145 10.6796 23.3771C10.5249 23.6397 10.4475 23.9491 10.4475 24.3055H9.14636C9.14636 23.785 9.27765 23.3114 9.54023 22.8847C9.80281 22.458 10.1709 22.1181 10.6445 21.8649C11.1227 21.6117 11.676 21.4851 12.3044 21.4851C12.9233 21.4851 13.4649 21.5953 13.9291 21.8157C14.3933 22.0313 14.7543 22.3549 15.0122 22.7863C15.2701 23.213 15.3991 23.7452 15.3991 24.3829C15.3991 24.6407 15.3381 24.9174 15.2162 25.2128C15.099 25.5035 14.9138 25.7755 14.6606 26.0287C14.412 26.2819 14.0885 26.4905 13.6899 26.6546C13.2914 26.8141 12.8131 26.8938 12.2551 26.8938H11.1438V26.106ZM11.1438 27.1751V26.3944H12.2551C12.9069 26.3944 13.4461 26.4718 13.8728 26.6265C14.2995 26.7813 14.6348 26.9876 14.8786 27.2455C15.1271 27.5033 15.3006 27.787 15.3991 28.0965C15.5022 28.4013 15.5538 28.7061 15.5538 29.0108C15.5538 29.4891 15.4717 29.9135 15.3076 30.2839C15.1482 30.6543 14.9208 30.9685 14.6254 31.2264C14.3347 31.4843 13.9924 31.6789 13.5985 31.8101C13.2046 31.9414 12.7756 32.0071 12.3114 32.0071C11.8659 32.0071 11.4463 31.9438 11.0524 31.8172C10.6632 31.6906 10.3186 31.5077 10.0185 31.2686C9.71841 31.0248 9.48396 30.727 9.31516 30.3753C9.14636 30.019 9.06195 29.6134 9.06195 29.1585H10.3631C10.3631 29.5149 10.4405 29.8267 10.5952 30.094C10.7547 30.3613 10.9797 30.5699 11.2704 30.72C11.5659 30.8653 11.9128 30.938 12.3114 30.938C12.71 30.938 13.0523 30.87 13.3383 30.734C13.629 30.5934 13.8517 30.3824 14.0065 30.101C14.1659 29.8197 14.2456 29.4657 14.2456 29.039C14.2456 28.6123 14.1565 28.263 13.9783 27.991C13.8001 27.7144 13.5469 27.5104 13.2187 27.3791C12.8952 27.2431 12.513 27.1751 12.0723 27.1751H11.1438ZM17.4317 31.1771C17.4317 30.9568 17.4997 30.7715 17.6357 30.6215C17.7764 30.4668 17.978 30.3894 18.2406 30.3894C18.5032 30.3894 18.7024 30.4668 18.8384 30.6215C18.9791 30.7715 19.0494 30.9568 19.0494 31.1771C19.0494 31.3928 18.9791 31.5757 18.8384 31.7257C18.7024 31.8758 18.5032 31.9508 18.2406 31.9508C17.978 31.9508 17.7764 31.8758 17.6357 31.7257C17.4997 31.5757 17.4317 31.3928 17.4317 31.1771ZM17.4388 24.9666C17.4388 24.7462 17.5068 24.561 17.6427 24.411C17.7834 24.2563 17.985 24.1789 18.2476 24.1789C18.5102 24.1789 18.7095 24.2563 18.8454 24.411C18.9861 24.561 19.0565 24.7462 19.0565 24.9666C19.0565 25.1823 18.9861 25.3652 18.8454 25.5152C18.7095 25.6653 18.5102 25.7403 18.2476 25.7403C17.985 25.7403 17.7834 25.6653 17.6427 25.5152C17.5068 25.3652 17.4388 25.1823 17.4388 24.9666ZM27.5458 30.7973V31.8664H20.8429V30.931L24.1979 27.1962C24.6105 26.7367 24.9294 26.3475 25.1544 26.0287C25.3842 25.7051 25.5436 25.4168 25.6327 25.1636C25.7265 24.9057 25.7734 24.6431 25.7734 24.3758C25.7734 24.0382 25.703 23.7334 25.5624 23.4615C25.4264 23.1848 25.2248 22.9644 24.9575 22.8003C24.6902 22.6362 24.3667 22.5542 23.9869 22.5542C23.5321 22.5542 23.1522 22.6433 22.8475 22.8214C22.5474 22.9949 22.3223 23.2388 22.1723 23.5529C22.0222 23.8671 21.9472 24.2281 21.9472 24.6361H20.646C20.646 24.0593 20.7726 23.5318 21.0258 23.0535C21.279 22.5753 21.6541 22.1955 22.1512 21.9141C22.6482 21.6281 23.2601 21.4851 23.9869 21.4851C24.634 21.4851 25.1873 21.6 25.6468 21.8297C26.1063 22.0548 26.458 22.3736 26.7018 22.7863C26.9503 23.1942 27.0746 23.6725 27.0746 24.2211C27.0746 24.5212 27.023 24.826 26.9198 25.1354C26.8214 25.4402 26.683 25.745 26.5048 26.0498C26.3314 26.3546 26.1274 26.6546 25.8929 26.9501C25.6632 27.2455 25.417 27.5362 25.1544 27.8222L22.4114 30.7973H27.5458ZM35.367 25.9302V27.4916C35.367 28.3309 35.2919 29.039 35.1419 29.6157C34.9918 30.1925 34.7762 30.6567 34.4948 31.0083C34.2135 31.36 33.8735 31.6156 33.475 31.775C33.0811 31.9297 32.6356 32.0071 32.1386 32.0071C31.7447 32.0071 31.3814 31.9579 31.0484 31.8594C30.7155 31.7609 30.4154 31.6038 30.1482 31.3881C29.8856 31.1678 29.6605 30.8817 29.473 30.5301C29.2854 30.1784 29.1424 29.7517 29.0439 29.25C28.9454 28.7483 28.8962 28.1621 28.8962 27.4916V25.9302C28.8962 25.0909 28.9712 24.3875 29.1213 23.8202C29.276 23.2528 29.4941 22.798 29.7754 22.4557C30.0567 22.1087 30.3943 21.8602 30.7882 21.7102C31.1868 21.5601 31.6322 21.4851 32.1246 21.4851C32.5231 21.4851 32.8889 21.5343 33.2218 21.6328C33.5594 21.7266 33.8595 21.879 34.122 22.09C34.3846 22.2963 34.6074 22.5729 34.7902 22.9199C34.9778 23.2622 35.1208 23.6819 35.2193 24.1789C35.3177 24.6759 35.367 25.2597 35.367 25.9302ZM34.0587 27.7026V25.7122C34.0587 25.2527 34.0306 24.8494 33.9743 24.5024C33.9228 24.1508 33.8454 23.8507 33.7422 23.6021C33.6391 23.3536 33.5078 23.152 33.3484 22.9973C33.1936 22.8425 33.0131 22.73 32.8068 22.6597C32.6052 22.5846 32.3778 22.5471 32.1246 22.5471C31.8151 22.5471 31.5408 22.6057 31.3016 22.723C31.0625 22.8355 30.8609 23.016 30.6968 23.2645C30.5373 23.5131 30.4154 23.8389 30.331 24.2422C30.2466 24.6454 30.2044 25.1354 30.2044 25.7122V27.7026C30.2044 28.1621 30.2302 28.5677 30.2818 28.9194C30.3381 29.2711 30.4201 29.5759 30.528 29.8338C30.6358 30.087 30.7671 30.2956 30.9218 30.4597C31.0766 30.6238 31.2548 30.7458 31.4564 30.8255C31.6627 30.9005 31.8901 30.938 32.1386 30.938C32.4575 30.938 32.7365 30.877 32.9756 30.7551C33.2147 30.6332 33.414 30.4433 33.5734 30.1854C33.7376 29.9228 33.8595 29.5876 33.9392 29.1796C34.0189 28.767 34.0587 28.2747 34.0587 27.7026Z" fill="#C4C4CC"/>
</g>
<g opacity="0.7">
<path d="M271.652 25.9302V27.4916C271.652 28.3309 271.577 29.039 271.427 29.6157C271.277 30.1925 271.062 30.6567 270.78 31.0083C270.499 31.36 270.159 31.6156 269.76 31.775C269.367 31.9297 268.921 32.0071 268.424 32.0071C268.03 32.0071 267.667 31.9579 267.334 31.8594C267.001 31.7609 266.701 31.6038 266.434 31.3881C266.171 31.1678 265.946 30.8817 265.758 30.5301C265.571 30.1784 265.428 29.7517 265.329 29.25C265.231 28.7483 265.182 28.1621 265.182 27.4916V25.9302C265.182 25.0909 265.257 24.3875 265.407 23.8202C265.562 23.2528 265.78 22.798 266.061 22.4557C266.342 22.1087 266.68 21.8602 267.074 21.7102C267.472 21.5601 267.918 21.4851 268.41 21.4851C268.809 21.4851 269.174 21.5343 269.507 21.6328C269.845 21.7266 270.145 21.879 270.408 22.09C270.67 22.2963 270.893 22.5729 271.076 22.9199C271.263 23.2622 271.406 23.6819 271.505 24.1789C271.603 24.6759 271.652 25.2597 271.652 25.9302ZM270.344 27.7026V25.7122C270.344 25.2527 270.316 24.8494 270.26 24.5024C270.208 24.1508 270.131 23.8507 270.028 23.6021C269.925 23.3536 269.793 23.152 269.634 22.9973C269.479 22.8425 269.299 22.73 269.092 22.6597C268.891 22.5846 268.663 22.5471 268.41 22.5471C268.101 22.5471 267.826 22.6057 267.587 22.723C267.348 22.8355 267.146 23.016 266.982 23.2645C266.823 23.5131 266.701 23.8389 266.617 24.2422C266.532 24.6454 266.49 25.1354 266.49 25.7122V27.7026C266.49 28.1621 266.516 28.5677 266.567 28.9194C266.624 29.2711 266.706 29.5759 266.813 29.8338C266.921 30.087 267.053 30.2956 267.207 30.4597C267.362 30.6238 267.54 30.7458 267.742 30.8255C267.948 30.9005 268.176 30.938 268.424 30.938C268.743 30.938 269.022 30.877 269.261 30.7551C269.5 30.6332 269.7 30.4433 269.859 30.1854C270.023 29.9228 270.145 29.5876 270.225 29.1796C270.304 28.767 270.344 28.2747 270.344 27.7026ZM279.755 25.9302V27.4916C279.755 28.3309 279.68 29.039 279.53 29.6157C279.38 30.1925 279.164 30.6567 278.883 31.0083C278.602 31.36 278.262 31.6156 277.863 31.775C277.469 31.9297 277.024 32.0071 276.527 32.0071C276.133 32.0071 275.769 31.9579 275.436 31.8594C275.104 31.7609 274.803 31.6038 274.536 31.3881C274.274 31.1678 274.049 30.8817 273.861 30.5301C273.673 30.1784 273.53 29.7517 273.432 29.25C273.333 28.7483 273.284 28.1621 273.284 27.4916V25.9302C273.284 25.0909 273.359 24.3875 273.509 23.8202C273.664 23.2528 273.882 22.798 274.163 22.4557C274.445 22.1087 274.782 21.8602 275.176 21.7102C275.575 21.5601 276.02 21.4851 276.513 21.4851C276.911 21.4851 277.277 21.5343 277.61 21.6328C277.947 21.7266 278.247 21.879 278.51 22.09C278.773 22.2963 278.995 22.5729 279.178 22.9199C279.366 23.2622 279.509 23.6819 279.607 24.1789C279.706 24.6759 279.755 25.2597 279.755 25.9302ZM278.447 27.7026V25.7122C278.447 25.2527 278.419 24.8494 278.362 24.5024C278.311 24.1508 278.233 23.8507 278.13 23.6021C278.027 23.3536 277.896 23.152 277.736 22.9973C277.582 22.8425 277.401 22.73 277.195 22.6597C276.993 22.5846 276.766 22.5471 276.513 22.5471C276.203 22.5471 275.929 22.6057 275.69 22.723C275.451 22.8355 275.249 23.016 275.085 23.2645C274.925 23.5131 274.803 23.8389 274.719 24.2422C274.635 24.6454 274.592 25.1354 274.592 25.7122V27.7026C274.592 28.1621 274.618 28.5677 274.67 28.9194C274.726 29.2711 274.808 29.5759 274.916 29.8338C275.024 30.087 275.155 30.2956 275.31 30.4597C275.465 30.6238 275.643 30.7458 275.844 30.8255C276.051 30.9005 276.278 30.938 276.527 30.938C276.845 30.938 277.124 30.877 277.364 30.7551C277.603 30.6332 277.802 30.4433 277.961 30.1854C278.126 29.9228 278.247 29.5876 278.327 29.1796C278.407 28.767 278.447 28.2747 278.447 27.7026ZM281.513 31.1771C281.513 30.9568 281.581 30.7715 281.717 30.6215C281.858 30.4668 282.06 30.3894 282.322 30.3894C282.585 30.3894 282.784 30.4668 282.92 30.6215C283.061 30.7715 283.131 30.9568 283.131 31.1771C283.131 31.3928 283.061 31.5757 282.92 31.7257C282.784 31.8758 282.585 31.9508 282.322 31.9508C282.06 31.9508 281.858 31.8758 281.717 31.7257C281.581 31.5757 281.513 31.3928 281.513 31.1771ZM281.52 24.9666C281.52 24.7462 281.588 24.561 281.724 24.411C281.865 24.2563 282.067 24.1789 282.329 24.1789C282.592 24.1789 282.791 24.2563 282.927 24.411C283.068 24.561 283.138 24.7462 283.138 24.9666C283.138 25.1823 283.068 25.3652 282.927 25.5152C282.791 25.6653 282.592 25.7403 282.329 25.7403C282.067 25.7403 281.865 25.6653 281.724 25.5152C281.588 25.3652 281.52 25.1823 281.52 24.9666ZM289.194 21.5695V31.8664H287.893V23.1942L285.269 24.1508V22.9762L288.99 21.5695H289.194ZM299.73 30.7973V31.8664H293.027V30.931L296.382 27.1962C296.795 26.7367 297.113 26.3475 297.339 26.0287C297.568 25.7051 297.728 25.4168 297.817 25.1636C297.911 24.9057 297.957 24.6431 297.957 24.3758C297.957 24.0382 297.887 23.7334 297.746 23.4615C297.611 23.1848 297.409 22.9644 297.142 22.8003C296.874 22.6362 296.551 22.5542 296.171 22.5542C295.716 22.5542 295.336 22.6433 295.032 22.8214C294.731 22.9949 294.506 23.2388 294.356 23.5529C294.206 23.8671 294.131 24.2281 294.131 24.6361H292.83C292.83 24.0593 292.957 23.5318 293.21 23.0535C293.463 22.5753 293.838 22.1955 294.335 21.9141C294.832 21.6281 295.444 21.4851 296.171 21.4851C296.818 21.4851 297.371 21.6 297.831 21.8297C298.29 22.0548 298.642 22.3736 298.886 22.7863C299.134 23.1942 299.259 23.6725 299.259 24.2211C299.259 24.5212 299.207 24.826 299.104 25.1354C299.005 25.4402 298.867 25.745 298.689 26.0498C298.515 26.3546 298.312 26.6546 298.077 26.9501C297.847 27.2455 297.601 27.5362 297.339 27.8222L294.596 30.7973H299.73Z" fill="#C4C4CC"/>
</g>
</svg>
