<svg width="191" height="40" viewBox="0 0 191 40" fill="none" xmlns="http://www.w3.org/2000/svg">
<rect opacity="0.3" x="0.411865" y="0.446167" width="189.659" height="6.00186" rx="3.00093" fill="#D9D9D9"/>
<rect opacity="0.8" x="0.411865" y="0.446167" width="165.003" height="6.00186" rx="3.00093" fill="#D9D9D9"/>
<g opacity="0.7">
<path d="M7.69146 26.1148V27.6762C7.69146 28.5155 7.61644 29.2236 7.46639 29.8003C7.31634 30.377 7.10065 30.8412 6.81931 31.1929C6.53798 31.5446 6.19803 31.8001 5.79947 31.9596C5.4056 32.1143 4.96015 32.1917 4.46312 32.1917C4.06925 32.1917 3.70585 32.1424 3.37294 32.044C3.04002 31.9455 2.73993 31.7884 2.47266 31.5727C2.21008 31.3523 1.98501 31.0663 1.79745 30.7146C1.60989 30.363 1.46688 29.9363 1.36841 29.4346C1.26994 28.9328 1.22071 28.3467 1.22071 27.6762V26.1148C1.22071 25.2755 1.29573 24.5721 1.44578 24.0048C1.60051 23.4374 1.81855 22.9826 2.09989 22.6403C2.38122 22.2933 2.71883 22.0448 3.1127 21.8947C3.51126 21.7447 3.95671 21.6697 4.44905 21.6697C4.84761 21.6697 5.21335 21.7189 5.54626 21.8174C5.88387 21.9111 6.18396 22.0635 6.44654 22.2745C6.70912 22.4808 6.93185 22.7575 7.11472 23.1045C7.30228 23.4468 7.44529 23.8664 7.54376 24.3635C7.64223 24.8605 7.69146 25.4443 7.69146 26.1148ZM6.38324 27.8872V25.8967C6.38324 25.4372 6.35511 25.034 6.29884 24.687C6.24726 24.3353 6.1699 24.0352 6.06674 23.7867C5.96358 23.5382 5.83229 23.3366 5.67287 23.1818C5.51813 23.0271 5.33761 22.9146 5.13129 22.8442C4.92967 22.7692 4.70225 22.7317 4.44905 22.7317C4.13958 22.7317 3.86528 22.7903 3.62614 22.9075C3.387 23.0201 3.18538 23.2006 3.02127 23.4491C2.86184 23.6976 2.73993 24.0235 2.65553 24.4268C2.57113 24.83 2.52893 25.32 2.52893 25.8967V27.8872C2.52893 28.3467 2.55472 28.7523 2.60629 29.104C2.66256 29.4557 2.74462 29.7604 2.85246 30.0183C2.96031 30.2715 3.0916 30.4802 3.24634 30.6443C3.40107 30.8084 3.57925 30.9303 3.78088 31.01C3.98719 31.0851 4.2146 31.1226 4.46312 31.1226C4.78197 31.1226 5.06096 31.0616 5.30009 30.9397C5.53923 30.8178 5.73851 30.6279 5.89794 30.37C6.06205 30.1074 6.18396 29.7722 6.26367 29.3642C6.34339 28.9516 6.38324 28.4593 6.38324 27.8872ZM11.2644 26.2906H12.1929C12.6477 26.2906 13.0228 26.2156 13.3182 26.0656C13.6183 25.9108 13.841 25.7022 13.9864 25.4396C14.1364 25.1723 14.2114 24.8722 14.2114 24.5393C14.2114 24.1454 14.1458 23.8149 14.0145 23.5476C13.8832 23.2803 13.6863 23.0787 13.4237 22.9427C13.1611 22.8067 12.8282 22.7387 12.425 22.7387C12.0592 22.7387 11.7357 22.8114 11.4543 22.9568C11.1777 23.0974 10.9597 23.2991 10.8002 23.5617C10.6455 23.8242 10.5681 24.1337 10.5681 24.4901H9.26695C9.26695 23.9696 9.39824 23.496 9.66082 23.0693C9.9234 22.6426 10.2915 22.3027 10.7651 22.0495C11.2433 21.7963 11.7966 21.6697 12.425 21.6697C13.0439 21.6697 13.5855 21.7799 14.0497 22.0002C14.5139 22.2159 14.8749 22.5395 15.1328 22.9708C15.3907 23.3975 15.5197 23.9297 15.5197 24.5674C15.5197 24.8253 15.4587 25.102 15.3368 25.3974C15.2196 25.6881 15.0344 25.96 14.7812 26.2133C14.5326 26.4665 14.2091 26.6751 13.8105 26.8392C13.412 26.9987 12.9337 27.0784 12.3757 27.0784H11.2644V26.2906ZM11.2644 27.3597V26.579H12.3757C13.0275 26.579 13.5667 26.6564 13.9934 26.8111C14.4201 26.9658 14.7554 27.1721 14.9992 27.43C15.2477 27.6879 15.4212 27.9716 15.5197 28.2811C15.6228 28.5859 15.6744 28.8906 15.6744 29.1954C15.6744 29.6737 15.5923 30.098 15.4282 30.4685C15.2688 30.8389 15.0414 31.1531 14.746 31.411C14.4553 31.6688 14.113 31.8634 13.7191 31.9947C13.3252 32.126 12.8962 32.1917 12.432 32.1917C11.9865 32.1917 11.5669 32.1284 11.173 32.0018C10.7838 31.8752 10.4392 31.6923 10.1391 31.4532C9.839 31.2093 9.60455 30.9116 9.43575 30.5599C9.26695 30.2035 9.18255 29.798 9.18255 29.3431H10.4837C10.4837 29.6995 10.5611 30.0113 10.7158 30.2786C10.8753 30.5458 11.1003 30.7545 11.391 30.9045C11.6864 31.0499 12.0334 31.1226 12.432 31.1226C12.8305 31.1226 13.1728 31.0546 13.4589 30.9186C13.7496 30.7779 13.9723 30.5669 14.127 30.2856C14.2865 30.0043 14.3662 29.6503 14.3662 29.2236C14.3662 28.7969 14.2771 28.4475 14.0989 28.1756C13.9207 27.8989 13.6675 27.695 13.3393 27.5637C13.0158 27.4277 12.6336 27.3597 12.1929 27.3597H11.2644ZM17.5523 31.3617C17.5523 31.1413 17.6203 30.9561 17.7563 30.8061C17.897 30.6513 18.0986 30.574 18.3612 30.574C18.6237 30.574 18.823 30.6513 18.959 30.8061C19.0997 30.9561 19.17 31.1413 19.17 31.3617C19.17 31.5774 19.0997 31.7603 18.959 31.9103C18.823 32.0604 18.6237 32.1354 18.3612 32.1354C18.0986 32.1354 17.897 32.0604 17.7563 31.9103C17.6203 31.7603 17.5523 31.5774 17.5523 31.3617ZM17.5594 25.1512C17.5594 24.9308 17.6273 24.7456 17.7633 24.5956C17.904 24.4408 18.1056 24.3635 18.3682 24.3635C18.6308 24.3635 18.8301 24.4408 18.966 24.5956C19.1067 24.7456 19.177 24.9308 19.177 25.1512C19.177 25.3669 19.1067 25.5498 18.966 25.6998C18.8301 25.8499 18.6308 25.9249 18.3682 25.9249C18.1056 25.9249 17.904 25.8499 17.7633 25.6998C17.6273 25.5498 17.5594 25.3669 17.5594 25.1512ZM27.6664 30.9819V32.051H20.9635V31.1155L24.3185 27.3808C24.7311 26.9213 25.05 26.5321 25.275 26.2133C25.5048 25.8897 25.6642 25.6013 25.7533 25.3481C25.8471 25.0902 25.894 24.8277 25.894 24.5604C25.894 24.2228 25.8236 23.918 25.683 23.6461C25.547 23.3694 25.3454 23.149 25.0781 22.9849C24.8108 22.8208 24.4873 22.7387 24.1075 22.7387C23.6526 22.7387 23.2728 22.8278 22.9681 23.006C22.668 23.1795 22.4429 23.4233 22.2928 23.7375C22.1428 24.0516 22.0678 24.4127 22.0678 24.8206H20.7666C20.7666 24.2439 20.8932 23.7164 21.1464 23.2381C21.3996 22.7598 21.7747 22.38 22.2717 22.0987C22.7688 21.8127 23.3807 21.6697 24.1075 21.6697C24.7545 21.6697 25.3078 21.7845 25.7674 22.0143C26.2269 22.2394 26.5785 22.5582 26.8224 22.9708C27.0709 23.3788 27.1951 23.8571 27.1951 24.4057C27.1951 24.7058 27.1436 25.0105 27.0404 25.32C26.9419 25.6248 26.8036 25.9296 26.6254 26.2344C26.4519 26.5391 26.248 26.8392 26.0135 27.1346C25.7838 27.43 25.5376 27.7208 25.275 28.0068L22.532 30.9819H27.6664ZM35.4876 26.1148V27.6762C35.4876 28.5155 35.4125 29.2236 35.2625 29.8003C35.1124 30.377 34.8967 30.8412 34.6154 31.1929C34.3341 31.5446 33.9941 31.8001 33.5956 31.9596C33.2017 32.1143 32.7562 32.1917 32.2592 32.1917C31.8653 32.1917 31.5019 32.1424 31.169 32.044C30.8361 31.9455 30.536 31.7884 30.2688 31.5727C30.0062 31.3523 29.7811 31.0663 29.5935 30.7146C29.406 30.363 29.263 29.9363 29.1645 29.4346C29.066 28.9328 29.0168 28.3467 29.0168 27.6762V26.1148C29.0168 25.2755 29.0918 24.5721 29.2419 24.0048C29.3966 23.4374 29.6146 22.9826 29.896 22.6403C30.1773 22.2933 30.5149 22.0448 30.9088 21.8947C31.3074 21.7447 31.7528 21.6697 32.2451 21.6697C32.6437 21.6697 33.0094 21.7189 33.3424 21.8174C33.68 21.9111 33.9801 22.0635 34.2426 22.2745C34.5052 22.4808 34.7279 22.7575 34.9108 23.1045C35.0984 23.4468 35.2414 23.8664 35.3399 24.3635C35.4383 24.8605 35.4876 25.4443 35.4876 26.1148ZM34.1793 27.8872V25.8967C34.1793 25.4372 34.1512 25.034 34.0949 24.687C34.0434 24.3353 33.966 24.0352 33.8628 23.7867C33.7597 23.5382 33.6284 23.3366 33.469 23.1818C33.3142 23.0271 33.1337 22.9146 32.9274 22.8442C32.7258 22.7692 32.4983 22.7317 32.2451 22.7317C31.9357 22.7317 31.6614 22.7903 31.4222 22.9075C31.1831 23.0201 30.9815 23.2006 30.8174 23.4491C30.6579 23.6976 30.536 24.0235 30.4516 24.4268C30.3672 24.83 30.325 25.32 30.325 25.8967V27.8872C30.325 28.3467 30.3508 28.7523 30.4024 29.104C30.4587 29.4557 30.5407 29.7604 30.6486 30.0183C30.7564 30.2715 30.8877 30.4802 31.0424 30.6443C31.1972 30.8084 31.3753 30.9303 31.577 31.01C31.7833 31.0851 32.0107 31.1226 32.2592 31.1226C32.5781 31.1226 32.8571 31.0616 33.0962 30.9397C33.3353 30.8178 33.5346 30.6279 33.694 30.37C33.8581 30.1074 33.9801 29.7722 34.0598 29.3642C34.1395 28.9516 34.1793 28.4593 34.1793 27.8872Z" fill="#C4C4CC"/>
</g>
<g opacity="0.7">
<path d="M161.339 26.1148V27.6762C161.339 28.5155 161.264 29.2236 161.114 29.8003C160.964 30.377 160.748 30.8412 160.467 31.1929C160.185 31.5446 159.846 31.8001 159.447 31.9596C159.053 32.1143 158.608 32.1917 158.111 32.1917C157.717 32.1917 157.353 32.1424 157.02 32.044C156.688 31.9455 156.387 31.7884 156.12 31.5727C155.858 31.3523 155.632 31.0663 155.445 30.7146C155.257 30.363 155.114 29.9363 155.016 29.4346C154.917 28.9328 154.868 28.3467 154.868 27.6762V26.1148C154.868 25.2755 154.943 24.5721 155.093 24.0048C155.248 23.4374 155.466 22.9826 155.747 22.6403C156.029 22.2933 156.366 22.0448 156.76 21.8947C157.159 21.7447 157.604 21.6697 158.097 21.6697C158.495 21.6697 158.861 21.7189 159.194 21.8174C159.531 21.9111 159.831 22.0635 160.094 22.2745C160.357 22.4808 160.579 22.7575 160.762 23.1045C160.95 23.4468 161.093 23.8664 161.191 24.3635C161.29 24.8605 161.339 25.4443 161.339 26.1148ZM160.031 27.8872V25.8967C160.031 25.4372 160.003 25.034 159.946 24.687C159.895 24.3353 159.817 24.0352 159.714 23.7867C159.611 23.5382 159.48 23.3366 159.32 23.1818C159.166 23.0271 158.985 22.9146 158.779 22.8442C158.577 22.7692 158.35 22.7317 158.097 22.7317C157.787 22.7317 157.513 22.7903 157.274 22.9075C157.034 23.0201 156.833 23.2006 156.669 23.4491C156.509 23.6976 156.387 24.0235 156.303 24.4268C156.219 24.83 156.176 25.32 156.176 25.8967V27.8872C156.176 28.3467 156.202 28.7523 156.254 29.104C156.31 29.4557 156.392 29.7604 156.5 30.0183C156.608 30.2715 156.739 30.4802 156.894 30.6443C157.049 30.8084 157.227 30.9303 157.428 31.01C157.635 31.0851 157.862 31.1226 158.111 31.1226C158.429 31.1226 158.708 31.0616 158.948 30.9397C159.187 30.8178 159.386 30.6279 159.545 30.37C159.71 30.1074 159.831 29.7722 159.911 29.3642C159.991 28.9516 160.031 28.4593 160.031 27.8872ZM169.441 26.1148V27.6762C169.441 28.5155 169.366 29.2236 169.216 29.8003C169.066 30.377 168.851 30.8412 168.569 31.1929C168.288 31.5446 167.948 31.8001 167.549 31.9596C167.156 32.1143 166.71 32.1917 166.213 32.1917C165.819 32.1917 165.456 32.1424 165.123 32.044C164.79 31.9455 164.49 31.7884 164.223 31.5727C163.96 31.3523 163.735 31.0663 163.547 30.7146C163.36 30.363 163.217 29.9363 163.118 29.4346C163.02 28.9328 162.971 28.3467 162.971 27.6762V26.1148C162.971 25.2755 163.046 24.5721 163.196 24.0048C163.351 23.4374 163.569 22.9826 163.85 22.6403C164.131 22.2933 164.469 22.0448 164.863 21.8947C165.261 21.7447 165.707 21.6697 166.199 21.6697C166.598 21.6697 166.963 21.7189 167.296 21.8174C167.634 21.9111 167.934 22.0635 168.197 22.2745C168.459 22.4808 168.682 22.7575 168.865 23.1045C169.052 23.4468 169.195 23.8664 169.294 24.3635C169.392 24.8605 169.441 25.4443 169.441 26.1148ZM168.133 27.8872V25.8967C168.133 25.4372 168.105 25.034 168.049 24.687C167.997 24.3353 167.92 24.0352 167.817 23.7867C167.714 23.5382 167.582 23.3366 167.423 23.1818C167.268 23.0271 167.088 22.9146 166.881 22.8442C166.68 22.7692 166.452 22.7317 166.199 22.7317C165.89 22.7317 165.615 22.7903 165.376 22.9075C165.137 23.0201 164.935 23.2006 164.771 23.4491C164.612 23.6976 164.49 24.0235 164.406 24.4268C164.321 24.83 164.279 25.32 164.279 25.8967V27.8872C164.279 28.3467 164.305 28.7523 164.356 29.104C164.413 29.4557 164.495 29.7604 164.602 30.0183C164.71 30.2715 164.842 30.4802 164.996 30.6443C165.151 30.8084 165.329 30.9303 165.531 31.01C165.737 31.0851 165.965 31.1226 166.213 31.1226C166.532 31.1226 166.811 31.0616 167.05 30.9397C167.289 30.8178 167.489 30.6279 167.648 30.37C167.812 30.1074 167.934 29.7722 168.014 29.3642C168.093 28.9516 168.133 28.4593 168.133 27.8872ZM171.2 31.3617C171.2 31.1413 171.268 30.9561 171.404 30.8061C171.544 30.6513 171.746 30.574 172.009 30.574C172.271 30.574 172.471 30.6513 172.606 30.8061C172.747 30.9561 172.817 31.1413 172.817 31.3617C172.817 31.5774 172.747 31.7603 172.606 31.9103C172.471 32.0604 172.271 32.1354 172.009 32.1354C171.746 32.1354 171.544 32.0604 171.404 31.9103C171.268 31.7603 171.2 31.5774 171.2 31.3617ZM171.207 25.1512C171.207 24.9308 171.275 24.7456 171.411 24.5956C171.551 24.4408 171.753 24.3635 172.016 24.3635C172.278 24.3635 172.478 24.4408 172.614 24.5956C172.754 24.7456 172.825 24.9308 172.825 25.1512C172.825 25.3669 172.754 25.5498 172.614 25.6998C172.478 25.8499 172.278 25.9249 172.016 25.9249C171.753 25.9249 171.551 25.8499 171.411 25.6998C171.275 25.5498 171.207 25.3669 171.207 25.1512ZM178.88 21.7541V32.051H177.579V23.3788L174.956 24.3353V23.1607L178.676 21.7541H178.88ZM189.416 30.9819V32.051H182.714V31.1155L186.068 27.3808C186.481 26.9213 186.8 26.5321 187.025 26.2133C187.255 25.8897 187.414 25.6013 187.503 25.3481C187.597 25.0902 187.644 24.8277 187.644 24.5604C187.644 24.2228 187.574 23.918 187.433 23.6461C187.297 23.3694 187.095 23.149 186.828 22.9849C186.561 22.8208 186.237 22.7387 185.857 22.7387C185.403 22.7387 185.023 22.8278 184.718 23.006C184.418 23.1795 184.193 23.4233 184.043 23.7375C183.893 24.0516 183.818 24.4127 183.818 24.8206H182.517C182.517 24.2439 182.643 23.7164 182.896 23.2381C183.15 22.7598 183.525 22.38 184.022 22.0987C184.519 21.8127 185.131 21.6697 185.857 21.6697C186.505 21.6697 187.058 21.7845 187.517 22.0143C187.977 22.2394 188.329 22.5582 188.572 22.9708C188.821 23.3788 188.945 23.8571 188.945 24.4057C188.945 24.7058 188.894 25.0105 188.79 25.32C188.692 25.6248 188.554 25.9296 188.375 26.2344C188.202 26.5391 187.998 26.8392 187.764 27.1346C187.534 27.43 187.288 27.7208 187.025 28.0068L184.282 30.9819H189.416Z" fill="#C4C4CC"/>
</g>
</svg>
